<svg width="100" height="100" viewBox="0 0 100 100" fill="none" xmlns="http://www.w3.org/2000/svg">
<rect width="100" height="100" rx="20" fill="#007B5E"/>
<path d="M50 75.5L84.5 36.1048H75.875L50 75.5Z" fill="#B2E5D0"/>
<path d="M50 36.1048H41.375L50 75.5L58.625 36.1048H50Z" fill="#B2E5D0"/>
<path d="M32.75 36.1048H24.125L50 75.5L41.375 36.1048H32.75Z" fill="#B2E5D0"/>
<path d="M67.25 36.1048H58.625L50 75.5L75.875 36.1048H67.25Z" fill="#B2E5D0"/>
<path d="M84.5 36.1048L69.9097 24.5L67.25 36.1048H75.875H84.5Z" fill="#B2E5D0"/>
<path d="M69.9097 24.5H50L67.25 36.1048L69.9097 24.5Z" fill="#B2E5D0"/>
<path d="M32.75 36.1048H41.375H50H58.625H67.25L50 24.5L32.75 36.1048Z" fill="#B2E5D0"/>
<path d="M30.0903 24.5L32.75 36.1048L50 24.5H30.0903Z" fill="#B2E5D0"/>
<path d="M30.0903 24.5L15.5 36.1048H24.125H32.75L30.0903 24.5Z" fill="#B2E5D0"/>
<path d="M15.5 36.1048L50 75.5L24.125 36.1048H15.5Z" fill="#B2E5D0"/>
<path d="M30.0903 24.5V23C29.7512 23 29.422 23.1149 29.1566 23.3261L30.0903 24.5ZM15.5 36.1048L14.5663 34.9308C14.2453 35.1862 14.0428 35.5618 14.006 35.9703C13.9693 36.3787 14.1013 36.7845 14.3715 37.093L15.5 36.1048ZM50 75.5L48.8715 76.4882C49.1564 76.8135 49.5677 77 50 77C50.4323 77 50.8436 76.8135 51.1285 76.4882L50 75.5ZM84.5 36.1048L85.6284 37.093C85.8987 36.7845 86.0307 36.3787 85.994 35.9702C85.9572 35.5618 85.7547 35.1862 85.4337 34.9308L84.5 36.1048ZM69.9097 24.5L70.8434 23.3261C70.578 23.1149 70.2488 23 69.9097 23V24.5ZM30.0903 24.5L29.1566 23.3261L14.5663 34.9308L15.5 36.1048L16.4337 37.2787L31.024 25.6739L30.0903 24.5ZM15.5 36.1048L14.3715 37.093L48.8715 76.4882L50 75.5L51.1285 74.5118L16.6285 35.1166L15.5 36.1048ZM50 75.5L51.1285 76.4882L85.6284 37.093L84.5 36.1048L83.3716 35.1166L48.8715 74.5118L50 75.5ZM84.5 36.1048L85.4337 34.9308L70.8434 23.3261L69.9097 24.5L68.976 25.6739L83.5663 37.2787L84.5 36.1048ZM15.5 36.1048V37.6048H24.125V36.1048V34.6048H15.5V36.1048ZM24.125 36.1048V37.6048H32.75V36.1048V34.6048H24.125V36.1048ZM32.75 36.1048V37.6048H41.375V36.1048V34.6048H32.75V36.1048ZM41.375 36.1048V37.6048H67.25V36.1048V34.6048H41.375V36.1048ZM41.375 36.1048V37.6048H50V36.1048V34.6048H41.375V36.1048ZM24.125 36.1048V37.6048H41.375V36.1048V34.6048H24.125V36.1048ZM50 36.1048V37.6048H58.625V36.1048V34.6048H50V36.1048ZM58.625 36.1048V37.6048H67.25V36.1048V34.6048H58.625V36.1048ZM67.25 36.1048V37.6048H75.875V36.1048V34.6048H67.25V36.1048ZM75.875 36.1048V37.6048H84.5V36.1048V34.6048H75.875V36.1048ZM58.625 36.1048V37.6048H75.875V36.1048V34.6048H58.625V36.1048ZM24.125 36.1048L22.8712 36.9283L48.7462 76.3235L50 75.5L51.2538 74.6765L25.3788 35.2813L24.125 36.1048ZM41.375 36.1048L39.9097 36.4256C41.5938 44.118 42.908 50.1206 44.2222 56.1232C45.5364 62.1258 46.8506 68.1284 48.5347 75.8208L50 75.5L51.4653 75.1792C49.7812 67.4868 48.467 61.4842 47.1528 55.4816C45.8386 49.479 44.5244 43.4764 42.8403 35.784L41.375 36.1048ZM58.625 36.1048L57.1597 35.784L48.5347 75.1792L50 75.5L51.4653 75.8208L60.0903 36.4256L58.625 36.1048ZM75.875 36.1048L74.6212 35.2813L48.7462 74.6765L50 75.5L51.2538 76.3235L77.1287 36.9283L75.875 36.1048ZM30.0903 24.5L28.6282 24.8351L31.2879 36.4399L32.75 36.1048L34.2121 35.7697L31.5524 24.1649L30.0903 24.5ZM69.9097 24.5V23H50V24.5V26H69.9097V24.5ZM50 24.5V23H30.0903V24.5V26H50V24.5ZM50 24.5L49.1627 23.2554L31.9127 34.8602L32.75 36.1048L33.5873 37.3494L50.8373 25.7446L50 24.5ZM50 24.5L49.1627 25.7446L66.4127 37.3494L67.25 36.1048L68.0873 34.8602L50.8373 23.2554L50 24.5ZM69.9097 24.5L68.4476 24.1649L65.7879 35.7697L67.25 36.1048L68.7121 36.4399L71.3718 24.8351L69.9097 24.5ZM50 75.5L51.4653 75.1792L42.8403 35.784L41.375 36.1048L39.9097 36.4256L48.5347 75.8208L50 75.5Z" fill="#F6F8F8"/>
</svg>
